<?xml version="1.0" encoding="utf-8"?>
<!-- Generator: Adobe Illustrator 23.0.1, SVG Export Plug-In . SVG Version: 6.00 Build 0)  -->
<svg version="1.1" id="Layer_1" xmlns="http://www.w3.org/2000/svg" xmlns:xlink="http://www.w3.org/1999/xlink" x="0px" y="0px"
	 viewBox="0 0 16 16" style="enable-background:new 0 0 16 16;" xml:space="preserve">
<style type="text/css">
	.st0{fill:#F1C40F;}
</style>
<g>
	<path class="st0" d="M0,14c0,1.1,0.9,2,2,2h12c1.1,0,2-0.9,2-2V2c0-1.1-0.9-2-2-2H2C0.9,0,0,0.9,0,2V14z"/>
</g>
<g>
	<path d="M4.49,3.8h3.75c0.98,0,1.77,0.27,2.37,0.8s0.89,1.25,0.89,2.13c0,0.88-0.31,1.6-0.93,2.16c-0.62,0.56-1.42,0.84-2.4,0.84
		h-1.4v2.46H4.49V3.8z M6.77,7.88h1.26c0.36,0,0.65-0.1,0.87-0.3c0.22-0.2,0.33-0.46,0.33-0.78S9.12,6.22,8.9,6.02
		c-0.22-0.2-0.51-0.3-0.87-0.3H6.77V7.88z"/>
</g>
</svg>
